<svg class="svg-icon" style="width: 1em; height: 1em;vertical-align: middle;fill: currentColor;overflow: hidden;" viewBox="0 0 1024 1024" version="1.1" xmlns="http://www.w3.org/2000/svg"><path d="M0 512.095982a511.904018 511.904018 0 1 1 511.904018 511.904018 511.904018 511.904018 0 0 1-511.904018-511.904018z m127.976004 0a383.928013 383.928013 0 1 0 383.928014-383.928013 384.311942 384.311942 0 0 0-383.928014 383.928013z m319.940012 223.958008v-159.970006H287.94601a63.988002 63.988002 0 1 1 0-127.976004H447.916016v-159.970006a63.988002 63.988002 0 0 1 127.976004 0v159.970006h159.970006a63.988002 63.988002 0 0 1 0 127.976004H575.89202v159.970006a63.988002 63.988002 0 1 1-127.976004 0z" fill="#333333" /></svg>